<mxfile host="app.diagrams.net" modified="2024-02-13T08:29:57.968Z" agent="Mozilla/5.0 (Windows NT 10.0; Win64; x64) AppleWebKit/537.36 (KHTML, like Gecko) Chrome/121.0.0.0 Safari/537.36" etag="YEjL886UMEQ3Y_kL2WYl" version="23.1.2" type="device">
  <diagram name="Page-1" id="h7Py_JcBXn8D_wsGuNnk">
    <mxGraphModel dx="1687" dy="927" grid="1" gridSize="10" guides="1" tooltips="1" connect="1" arrows="1" fold="1" page="1" pageScale="1" pageWidth="850" pageHeight="1100" math="0" shadow="0">
      <root>
        <mxCell id="0" />
        <mxCell id="1" parent="0" />
        <mxCell id="K94llgApoKq9Pl8ovA2T-1" value="&lt;font style=&quot;font-size: 24px;&quot;&gt;Identification&lt;/font&gt;" style="rounded=1;whiteSpace=wrap;html=1;rotation=-90;" parent="1" vertex="1">
          <mxGeometry x="46.25" y="128.75" width="167.5" height="50" as="geometry" />
        </mxCell>
        <mxCell id="K94llgApoKq9Pl8ovA2T-2" value="&lt;font style=&quot;font-size: 24px;&quot;&gt;Screening&lt;br&gt;&lt;/font&gt;" style="rounded=1;whiteSpace=wrap;html=1;rotation=-90;" parent="1" vertex="1">
          <mxGeometry x="-20.71" y="390" width="301.37" height="50" as="geometry" />
        </mxCell>
        <mxCell id="K94llgApoKq9Pl8ovA2T-3" value="&lt;font style=&quot;font-size: 24px;&quot;&gt;Included&lt;br&gt;&lt;/font&gt;" style="rounded=1;whiteSpace=wrap;html=1;rotation=-90;" parent="1" vertex="1">
          <mxGeometry x="51.25" y="840" width="158.75" height="50" as="geometry" />
        </mxCell>
        <mxCell id="K94llgApoKq9Pl8ovA2T-8" style="edgeStyle=orthogonalEdgeStyle;rounded=0;orthogonalLoop=1;jettySize=auto;html=1;entryX=0.5;entryY=0;entryDx=0;entryDy=0;" parent="1" source="K94llgApoKq9Pl8ovA2T-4" target="K94llgApoKq9Pl8ovA2T-5" edge="1">
          <mxGeometry relative="1" as="geometry">
            <Array as="points">
              <mxPoint x="465" y="270" />
              <mxPoint x="315" y="270" />
            </Array>
          </mxGeometry>
        </mxCell>
        <mxCell id="K94llgApoKq9Pl8ovA2T-9" style="edgeStyle=orthogonalEdgeStyle;rounded=0;orthogonalLoop=1;jettySize=auto;html=1;exitX=0.5;exitY=1;exitDx=0;exitDy=0;entryX=0.5;entryY=0;entryDx=0;entryDy=0;" parent="1" source="K94llgApoKq9Pl8ovA2T-4" target="K94llgApoKq9Pl8ovA2T-6" edge="1">
          <mxGeometry relative="1" as="geometry" />
        </mxCell>
        <mxCell id="K94llgApoKq9Pl8ovA2T-10" style="edgeStyle=orthogonalEdgeStyle;rounded=0;orthogonalLoop=1;jettySize=auto;html=1;" parent="1" source="K94llgApoKq9Pl8ovA2T-4" target="K94llgApoKq9Pl8ovA2T-7" edge="1">
          <mxGeometry relative="1" as="geometry">
            <Array as="points">
              <mxPoint x="465" y="270" />
              <mxPoint x="615" y="270" />
            </Array>
          </mxGeometry>
        </mxCell>
        <mxCell id="K94llgApoKq9Pl8ovA2T-4" value="&lt;div&gt;&lt;font style=&quot;font-size: 16px;&quot;&gt;Smart Sensing Chair&lt;span style=&quot;background-color: initial;&quot;&gt;&lt;span style=&quot;white-space: pre;&quot;&gt;&amp;nbsp;OR &lt;/span&gt;&lt;/span&gt;&lt;span style=&quot;background-color: initial;&quot;&gt;Sitting Posture Recognition&lt;/span&gt;&lt;/font&gt;&lt;/div&gt;&lt;div&gt;&lt;font size=&quot;3&quot;&gt;OR Posture Classification OR&amp;nbsp;&lt;span style=&quot;background-color: initial;&quot;&gt;Sitting Posture Classification using Machine Learning&lt;/span&gt;&lt;/font&gt;&lt;/div&gt;&lt;div&gt;&lt;font size=&quot;3&quot;&gt;OR Sitting Posture Monitoring OR &lt;span style=&quot;background-color: initial;&quot;&gt;Sitting Posture Detection&lt;/span&gt;&lt;/font&gt;&lt;/div&gt;&lt;div&gt;&lt;br&gt;&lt;/div&gt;" style="rounded=1;whiteSpace=wrap;html=1;" parent="1" vertex="1">
          <mxGeometry x="210" y="82.5" width="510" height="150" as="geometry" />
        </mxCell>
        <mxCell id="K94llgApoKq9Pl8ovA2T-13" style="edgeStyle=orthogonalEdgeStyle;rounded=0;orthogonalLoop=1;jettySize=auto;html=1;entryX=0.5;entryY=0;entryDx=0;entryDy=0;" parent="1" source="K94llgApoKq9Pl8ovA2T-5" target="K94llgApoKq9Pl8ovA2T-11" edge="1">
          <mxGeometry relative="1" as="geometry">
            <Array as="points">
              <mxPoint x="315" y="480" />
              <mxPoint x="465" y="480" />
            </Array>
          </mxGeometry>
        </mxCell>
        <mxCell id="K94llgApoKq9Pl8ovA2T-5" value="&lt;b&gt;&lt;font style=&quot;font-size: 24px;&quot;&gt;MDPI&lt;/font&gt;&lt;/b&gt;" style="rhombus;whiteSpace=wrap;html=1;" parent="1" vertex="1">
          <mxGeometry x="250" y="310" width="130" height="130" as="geometry" />
        </mxCell>
        <mxCell id="K94llgApoKq9Pl8ovA2T-14" style="edgeStyle=orthogonalEdgeStyle;rounded=0;orthogonalLoop=1;jettySize=auto;html=1;exitX=0.5;exitY=1;exitDx=0;exitDy=0;entryX=0.5;entryY=0;entryDx=0;entryDy=0;" parent="1" source="K94llgApoKq9Pl8ovA2T-6" target="K94llgApoKq9Pl8ovA2T-11" edge="1">
          <mxGeometry relative="1" as="geometry">
            <mxPoint x="465" y="500" as="targetPoint" />
          </mxGeometry>
        </mxCell>
        <mxCell id="K94llgApoKq9Pl8ovA2T-6" value="&lt;b&gt;&lt;font style=&quot;font-size: 24px;&quot;&gt;IEEE&lt;/font&gt;&lt;/b&gt;" style="rhombus;whiteSpace=wrap;html=1;" parent="1" vertex="1">
          <mxGeometry x="400" y="310" width="130" height="130" as="geometry" />
        </mxCell>
        <mxCell id="K94llgApoKq9Pl8ovA2T-15" style="edgeStyle=orthogonalEdgeStyle;rounded=0;orthogonalLoop=1;jettySize=auto;html=1;exitX=0.5;exitY=1;exitDx=0;exitDy=0;entryX=0.5;entryY=0;entryDx=0;entryDy=0;" parent="1" source="K94llgApoKq9Pl8ovA2T-7" target="K94llgApoKq9Pl8ovA2T-11" edge="1">
          <mxGeometry relative="1" as="geometry">
            <mxPoint x="470" y="500" as="targetPoint" />
            <Array as="points">
              <mxPoint x="615" y="480" />
              <mxPoint x="465" y="480" />
            </Array>
          </mxGeometry>
        </mxCell>
        <mxCell id="K94llgApoKq9Pl8ovA2T-7" value="&lt;b&gt;&lt;font style=&quot;font-size: 18px;&quot;&gt;Google Scholar&lt;/font&gt;&lt;/b&gt;" style="rhombus;whiteSpace=wrap;html=1;" parent="1" vertex="1">
          <mxGeometry x="550" y="310" width="130" height="130" as="geometry" />
        </mxCell>
        <mxCell id="K94llgApoKq9Pl8ovA2T-19" style="edgeStyle=orthogonalEdgeStyle;rounded=0;orthogonalLoop=1;jettySize=auto;html=1;entryX=0.5;entryY=0;entryDx=0;entryDy=0;" parent="1" source="K94llgApoKq9Pl8ovA2T-11" target="K94llgApoKq9Pl8ovA2T-18" edge="1">
          <mxGeometry relative="1" as="geometry" />
        </mxCell>
        <mxCell id="K94llgApoKq9Pl8ovA2T-11" value="&lt;font style=&quot;font-size: 18px;&quot;&gt;Exclude duplicated papers&lt;/font&gt;" style="rounded=1;whiteSpace=wrap;html=1;" parent="1" vertex="1">
          <mxGeometry x="323.75" y="520" width="282.5" height="70" as="geometry" />
        </mxCell>
        <mxCell id="K94llgApoKq9Pl8ovA2T-27" style="edgeStyle=orthogonalEdgeStyle;rounded=0;orthogonalLoop=1;jettySize=auto;html=1;entryX=0.5;entryY=0;entryDx=0;entryDy=0;" parent="1" source="K94llgApoKq9Pl8ovA2T-12" target="K94llgApoKq9Pl8ovA2T-26" edge="1">
          <mxGeometry relative="1" as="geometry" />
        </mxCell>
        <mxCell id="K94llgApoKq9Pl8ovA2T-12" value="&lt;font style=&quot;font-size: 18px;&quot;&gt;Selection after in-depth reading&lt;/font&gt;" style="rounded=1;whiteSpace=wrap;html=1;" parent="1" vertex="1">
          <mxGeometry x="210" y="810" width="510" height="90" as="geometry" />
        </mxCell>
        <mxCell id="K94llgApoKq9Pl8ovA2T-23" style="edgeStyle=orthogonalEdgeStyle;rounded=0;orthogonalLoop=1;jettySize=auto;html=1;exitX=1;exitY=0.5;exitDx=0;exitDy=0;entryX=0;entryY=0.5;entryDx=0;entryDy=0;" parent="1" source="K94llgApoKq9Pl8ovA2T-18" target="K94llgApoKq9Pl8ovA2T-21" edge="1">
          <mxGeometry relative="1" as="geometry" />
        </mxCell>
        <mxCell id="lcbLtV3YTHZiTuQNgbO_-5" style="edgeStyle=orthogonalEdgeStyle;rounded=0;orthogonalLoop=1;jettySize=auto;html=1;exitX=0.5;exitY=1;exitDx=0;exitDy=0;entryX=0.5;entryY=0;entryDx=0;entryDy=0;" edge="1" parent="1" source="K94llgApoKq9Pl8ovA2T-18" target="lcbLtV3YTHZiTuQNgbO_-4">
          <mxGeometry relative="1" as="geometry" />
        </mxCell>
        <mxCell id="K94llgApoKq9Pl8ovA2T-18" value="&lt;font style=&quot;font-size: 18px;&quot;&gt;Initial research eligibility screening&lt;/font&gt;" style="rounded=1;whiteSpace=wrap;html=1;" parent="1" vertex="1">
          <mxGeometry x="210" y="630" width="510" height="70" as="geometry" />
        </mxCell>
        <mxCell id="K94llgApoKq9Pl8ovA2T-21" value="&lt;font style=&quot;font-size: 18px;&quot;&gt;Exclusion Criteria&lt;br&gt;&lt;ul&gt;&lt;li style=&quot;text-align: left;&quot;&gt;&lt;font style=&quot;font-size: 18px;&quot;&gt;&lt;span style=&quot;background-color: initial;&quot;&gt;Papers that are not in the English Language&lt;br&gt;&lt;/span&gt;&lt;/font&gt;&lt;/li&gt;&lt;li style=&quot;text-align: left;&quot;&gt;&lt;font style=&quot;font-size: 18px;&quot;&gt;&lt;span style=&quot;background-color: initial;&quot;&gt;Papers that are based on wearable technology&lt;/span&gt;&lt;/font&gt;&lt;/li&gt;&lt;li style=&quot;text-align: left;&quot;&gt;&lt;font style=&quot;font-size: 18px;&quot;&gt;&lt;span style=&quot;background-color: initial;&quot;&gt;Papers that don&#39;t contain 1 or more of the search keywords given&lt;/span&gt;&lt;/font&gt;&amp;nbsp;&lt;/li&gt;&lt;li style=&quot;text-align: left;&quot;&gt;&lt;font style=&quot;font-size: 18px;&quot;&gt;&lt;span style=&quot;background-color: initial;&quot;&gt;Papers that are not fully accessible without upfront payment&lt;/span&gt;&lt;/font&gt;&lt;/li&gt;&lt;/ul&gt;&lt;/font&gt;" style="rounded=1;whiteSpace=wrap;html=1;align=center;" parent="1" vertex="1">
          <mxGeometry x="790" y="543.75" width="510" height="242.5" as="geometry" />
        </mxCell>
        <mxCell id="K94llgApoKq9Pl8ovA2T-26" value="&lt;font style=&quot;font-size: 26px;&quot;&gt;33 Papers&lt;/font&gt;" style="text;html=1;strokeColor=none;fillColor=none;align=center;verticalAlign=middle;whiteSpace=wrap;rounded=0;" parent="1" vertex="1">
          <mxGeometry x="367.5" y="940" width="195" height="30" as="geometry" />
        </mxCell>
        <mxCell id="lcbLtV3YTHZiTuQNgbO_-1" value="&lt;font size=&quot;1&quot; style=&quot;&quot;&gt;&lt;b style=&quot;font-size: 18px;&quot;&gt;(253)&lt;/b&gt;&lt;/font&gt;" style="text;html=1;strokeColor=none;fillColor=none;align=center;verticalAlign=middle;whiteSpace=wrap;rounded=0;" vertex="1" parent="1">
          <mxGeometry x="330" y="420" width="60" height="30" as="geometry" />
        </mxCell>
        <mxCell id="lcbLtV3YTHZiTuQNgbO_-2" value="&lt;font size=&quot;1&quot; style=&quot;&quot;&gt;&lt;b style=&quot;font-size: 18px;&quot;&gt;(2536)&lt;/b&gt;&lt;/font&gt;" style="text;html=1;strokeColor=none;fillColor=none;align=center;verticalAlign=middle;whiteSpace=wrap;rounded=0;" vertex="1" parent="1">
          <mxGeometry x="480" y="420" width="60" height="30" as="geometry" />
        </mxCell>
        <mxCell id="lcbLtV3YTHZiTuQNgbO_-3" value="&lt;font size=&quot;1&quot; style=&quot;&quot;&gt;&lt;b style=&quot;font-size: 18px;&quot;&gt;(2930)&lt;/b&gt;&lt;/font&gt;" style="text;html=1;strokeColor=none;fillColor=none;align=center;verticalAlign=middle;whiteSpace=wrap;rounded=0;" vertex="1" parent="1">
          <mxGeometry x="640" y="420" width="60" height="30" as="geometry" />
        </mxCell>
        <mxCell id="lcbLtV3YTHZiTuQNgbO_-6" style="edgeStyle=orthogonalEdgeStyle;rounded=0;orthogonalLoop=1;jettySize=auto;html=1;exitX=0.5;exitY=1;exitDx=0;exitDy=0;entryX=0.5;entryY=0;entryDx=0;entryDy=0;" edge="1" parent="1" source="lcbLtV3YTHZiTuQNgbO_-4" target="K94llgApoKq9Pl8ovA2T-12">
          <mxGeometry relative="1" as="geometry" />
        </mxCell>
        <mxCell id="lcbLtV3YTHZiTuQNgbO_-4" value="&lt;font style=&quot;font-size: 26px;&quot;&gt;251 Papers&lt;/font&gt;" style="text;html=1;strokeColor=none;fillColor=none;align=center;verticalAlign=middle;whiteSpace=wrap;rounded=0;" vertex="1" parent="1">
          <mxGeometry x="390" y="740" width="150" height="30" as="geometry" />
        </mxCell>
        <mxCell id="lcbLtV3YTHZiTuQNgbO_-7" value="&lt;font style=&quot;font-size: 24px;&quot;&gt;Eligibility&lt;br&gt;&lt;/font&gt;" style="rounded=1;whiteSpace=wrap;html=1;rotation=-90;" vertex="1" parent="1">
          <mxGeometry x="53.78" y="651.35" width="152.39" height="50" as="geometry" />
        </mxCell>
      </root>
    </mxGraphModel>
  </diagram>
</mxfile>
